<?xml version="1.0" standalone="no"?>
<!DOCTYPE svg PUBLIC "-//W3C//DTD SVG 20010904//EN"
 "http://www.w3.org/TR/2001/REC-SVG-20010904/DTD/svg10.dtd">
<svg version="1.0" xmlns="http://www.w3.org/2000/svg"
 width="512.000000pt" height="512.000000pt" viewBox="0 0 512.000000 512.000000"
 preserveAspectRatio="xMidYMid meet">
<metadata>
Created by potrace 1.16, written by Peter Selinger 2001-2019
</metadata>
<g transform="translate(0.000000,512.000000) scale(0.100000,-0.100000)"
fill="#000000" stroke="none">
<path fill="#000000" stroke="none" d="M0 2560 l0 -2560 2560 0 2560 0 0 2560
0 2560 -2560 0 -2560 0 0 -2560z"/>
<path fill="#ffffff" stroke="none" d="M2108 3984 c6 -42 96 -116 717 -591
249 -190 268 -208 260 -242 -3 -14 -10 -30 -14 -34 -9 -9 -175 110 -335 238
-55 44 -103 82 -108 86 -4 3 -3 20 2 39 13 44 6 49 -16 11 l-18 -31 -43 26
c-38 22 -43 23 -43 7 0 -30 462 -469 553 -525 46 -29 62 -58 31 -58 -14 0
-101 36 -149 62 l-20 11 20 -23 c11 -13 43 -33 70 -46 l50 -23 -53 0 c-47 -1
-54 -4 -62 -26 -12 -32 1 -127 18 -133 9 -3 12 15 12 67 l0 71 55 0 c64 0 99
-14 113 -45 6 -13 44 -43 84 -66 40 -24 82 -53 93 -66 18 -22 22 -23 40 -10
17 13 18 17 5 32 -8 10 -41 29 -73 43 -40 17 -56 29 -53 39 4 9 -7 19 -32 30
-20 8 -39 19 -42 24 -3 5 -24 15 -45 23 l-40 15 35 0 c26 1 31 4 20 11 -13 8
-13 10 2 10 10 0 25 -11 33 -24 9 -13 29 -30 46 -36 16 -7 35 -20 42 -30 7 -9
26 -24 42 -33 17 -8 47 -33 68 -55 28 -29 45 -38 60 -35 22 4 21 4 -2 -16 -14
-13 -37 -21 -58 -21 l-35 0 4 -248 5 -248 -36 -11 c-29 -9 -42 -9 -65 3 -16 7
-58 19 -92 25 -58 10 -64 13 -64 35 0 15 -6 24 -15 24 -18 0 -18 -5 -5 -29 8
-16 4 -19 -29 -25 -44 -7 -64 -25 -51 -45 8 -14 54 -17 90 -6 23 7 90 -12 90
-26 0 -5 -4 -9 -8 -9 -5 0 -14 -10 -20 -22 l-11 -23 0 22 c-1 12 -11 29 -22
37 -19 13 -24 13 -45 -1 -16 -10 -24 -25 -24 -43 0 -25 5 -30 43 -39 42 -10
491 -141 494 -144 2 -2 6 -535 4 -609 -1 -57 -1 -58 -31 -58 -16 0 -30 5 -30
10 0 20 -31 9 -40 -15 -9 -24 -12 -24 -122 -27 l-113 -3 3 -53 3 -52 -105 0
-105 0 5 30 6 30 -86 -1 -86 -2 0 -28 0 -29 -167 0 c-93 0 -206 -3 -252 -7
l-84 -6 7 41 6 41 -30 -11 c-17 -5 -37 -7 -46 -4 -8 3 -17 -1 -20 -9 -10 -25
-21 -17 -17 13 4 26 4 26 -11 8 -19 -24 -71 -32 -62 -10 3 8 1 14 -3 14 -5 0
-11 -7 -15 -15 -3 -8 -15 -15 -26 -15 -15 0 -20 7 -21 28 0 26 -1 26 -9 5 -7
-17 -18 -23 -40 -23 -30 0 -30 0 -14 25 20 31 40 36 137 39 99 2 112 16 16 16
l-74 0 0 125 c0 92 -4 127 -14 137 -11 11 -12 0 -7 -72 4 -47 4 -111 0 -143
-6 -50 -9 -57 -29 -57 -14 0 -31 -13 -46 -34 -13 -19 -33 -37 -44 -40 -11 -3
-91 -6 -177 -6 -151 0 -158 1 -158 20 0 11 5 20 11 20 9 0 10 23 5 80 -5 68
-4 80 9 80 12 0 15 -16 17 -82 l1 -83 7 84 6 84 59 54 c33 29 63 53 68 53 4 0
7 9 7 20 0 15 7 20 24 20 14 0 54 7 91 15 44 11 103 15 178 13 l112 -3 3 -50
c1 -27 5 -61 8 -75 5 -22 7 -23 17 -9 7 9 27 24 46 33 32 17 33 19 29 67 -3
28 -9 54 -14 58 -12 12 -319 -3 -421 -20 -57 -9 -83 -18 -85 -28 -2 -10 -15
-15 -37 -15 -29 -1 -36 -6 -45 -31 -23 -63 -45 -85 -87 -85 -39 0 -39 0 -39
-41 0 -22 -8 -54 -17 -71 -17 -28 -17 -30 1 -44 16 -12 18 -19 10 -42 l-10
-27 -117 4 c-114 3 -117 3 -117 -18 0 -20 -4 -21 -114 -21 -62 0 -128 -3 -146
-6 -29 -6 -31 -5 -28 17 3 21 7 23 61 20 l57 -2 1 378 c1 208 4 431 8 496 l6
119 50 3 c28 2 320 5 650 7 l600 3 32 -24 c17 -13 37 -21 45 -19 7 3 21 1 30
-4 14 -6 21 -2 32 21 30 56 106 48 132 -15 18 -44 29 -38 20 11 -13 65 62 61
-1103 64 l-623 2 0 22 c0 21 4 22 123 25 67 2 123 4 124 5 1 1 3 162 4 357 l3
355 -42 3 c-23 2 -42 5 -42 8 0 3 7 19 16 37 14 27 15 33 2 40 -11 7 37 61
207 231 216 218 313 325 413 458 43 57 51 74 49 107 -1 32 5 46 36 80 34 38
36 44 30 87 l-6 45 39 -3 c31 -2 40 -7 42 -24z"/>
<path fill="#ffffff" stroke="none" d="M3260 3216 c0 -84 3 -181 7 -216 7 -75
7 -75 -95 17 l-69 62 4 48 c4 40 1 51 -16 67 -18 16 -21 31 -21 92 l0 73 38 4
c20 2 63 4 95 5 l57 2 0 -154z"/>
<path fill="#ffffff" stroke="none" d="M1260 2980 c11 -7 7 -10 -17 -10 -18 0
-33 5 -33 10 0 13 30 13 50 0z"/>
<path fill="#ffffff" stroke="none" d="M3612 2770 c-2 -112 -6 -140 -17 -140
-8 0 -19 8 -25 18 -11 16 -11 16 -6 0 3 -10 0 -20 -5 -24 -7 -4 -9 -50 -6
-135 3 -100 8 -131 21 -144 21 -22 20 -45 -1 -45 -45 0 -62 12 -65 44 -2 19
-8 31 -18 31 -8 0 -13 -7 -11 -15 4 -19 3 -40 -3 -110 -4 -37 -3 -49 3 -35 5
11 10 37 10 58 1 35 2 37 17 23 8 -9 25 -16 37 -16 12 0 29 -5 37 -10 13 -8
13 -10 -1 -10 -26 0 -33 -31 -9 -37 21 -5 28 -23 10 -23 -7 0 -7 -6 0 -19 23
-44 5 -79 -32 -60 -12 7 -15 18 -11 51 3 32 2 39 -6 27 -6 -9 -14 -42 -17 -74
l-7 -58 31 5 c25 3 33 0 38 -14 3 -10 16 -26 30 -34 26 -18 32 -34 12 -34 -7
0 -57 20 -110 44 -53 24 -115 47 -138 51 -24 4 -44 14 -51 26 -15 28 11 34 68
15 25 -9 53 -16 60 -16 19 0 16 27 -4 38 -15 9 -17 38 -21 244 -4 232 -4 235
17 241 13 3 21 13 21 26 0 14 11 25 35 35 52 22 43 71 -28 143 -55 58 -42 68
93 72 l55 1 -3 -140z"/>
<path fill="#ffffff" stroke="none" d="M3275 2070 c18 -8 17 -9 -7 -9 -16 -1
-28 4 -28 9 0 12 8 12 35 0z"/>
<path fill="#ffffff" stroke="none" d="M3350 2050 c0 -5 -7 -7 -15 -4 -8 4
-15 8 -15 10 0 2 7 4 15 4 8 0 15 -4 15 -10z"/>
<path fill="#ffffff" stroke="none" d="M3615 1950 c3 -5 2 -10 -4 -10 -5 0
-13 5 -16 10 -3 6 -2 10 4 10 5 0 13 -4 16 -10z"/>
<path fill="#ffffff" stroke="none" d="M3399 1156 c-10 -11 -133 -9 -137 2 -2
7 18 12 60 14 57 3 89 -4 77 -16z"/>
<path fill="#ffffff" stroke="none" d="M2950 1094 c0 -8 -9 -14 -20 -14 -22 0
-28 26 -7 33 16 6 27 -1 27 -19z"/>
<path fill="#ffffff" stroke="none" d="M3021 1107 c-6 -8 -8 -17 -4 -20 3 -4
-3 -7 -14 -7 -12 0 -23 8 -26 20 -4 17 0 20 25 20 24 0 28 -3 19 -13z"/>
<path fill="#ffffff" stroke="none" d="M2299 1089 c-21 -13 -59 -11 -59 4 0 9
11 12 36 9 25 -3 32 -7 23 -13z"/>
<path fill="#ffffff" stroke="none" d="M2090 1090 c0 -7 -108 -10 -325 -10
-179 0 -325 4 -325 8 0 5 146 9 325 11 218 1 325 -2 325 -9z"/>
<path fill="#ffffff" stroke="none" d="M2195 1090 c-3 -5 -24 -10 -46 -10 -21
0 -39 5 -39 10 0 6 21 10 46 10 27 0 43 -4 39 -10z"/>
<path fill="#000000" stroke="none" d="M2104 3843 c14 -20 23 -39 21 -43 -3
-4 5 -16 17 -26 17 -16 15 -8 -12 44 -18 34 -37 62 -42 62 -5 0 2 -17 16 -37z"/>
<path fill="#000000" stroke="none" d="M2036 3838 c-8 -13 -18 -35 -21 -50 -5
-21 -3 -27 15 -33 20 -6 20 -8 6 -24 -9 -10 -16 -22 -16 -27 0 -29 -189 -249
-426 -495 -190 -198 -261 -279 -246 -279 6 0 21 15 33 33 13 17 93 104 179
192 292 301 495 528 495 555 0 12 12 15 60 14 33 -1 51 0 40 3 -33 8 -125 56
-125 65 0 14 22 52 34 60 8 5 7 8 -1 8 -7 0 -19 -10 -27 -22z"/>
<path fill="#000000" stroke="none" d="M2080 3826 c0 -2 8 -10 18 -17 15 -13
16 -12 3 4 -13 16 -21 21 -21 13z"/>
<path fill="#000000" stroke="none" d="M2173 3701 c-10 -17 -9 -19 16 -23 27
-4 28 -3 18 19 -12 28 -19 29 -34 4z"/>
<path fill="#000000" stroke="none" d="M2098 3639 c-37 -27 -38 -66 -3 -75 51
-13 76 16 55 66 -15 35 -17 36 -52 9z"/>
<path fill="#000000" stroke="none" d="M2230 3646 c0 -2 8 -10 18 -17 15 -13
16 -12 3 4 -13 16 -21 21 -21 13z"/>
<path fill="#000000" stroke="none" d="M2260 3606 c0 -2 8 -10 18 -17 15 -13
16 -12 3 4 -13 16 -21 21 -21 13z"/>
<path fill="#000000" stroke="none" d="M1998 3548 c-30 -45 -90 -116 -267
-312 l-26 -29 36 27 c20 14 73 68 117 120 45 51 89 99 98 107 16 13 17 11 11
-23 -5 -33 -3 -38 14 -38 17 0 20 5 15 28 -3 16 4 55 18 97 13 39 23 71 22 73
-2 1 -19 -21 -38 -50z"/>
<path fill="#000000" stroke="none" d="M2301 3555 c76 -96 383 -440 425 -476
11 -9 33 -21 49 -26 20 -6 31 -17 33 -32 3 -19 8 -22 30 -18 15 3 40 -1 57 -9
l30 -14 -25 17 c-13 10 -34 27 -45 38 -11 11 -32 21 -47 21 -16 1 -43 13 -62
28 -47 35 -280 284 -359 381 -35 44 -72 87 -83 95 -18 14 -18 14 -3 -5z"/>
<path fill="#000000" stroke="none" d="M2150 3533 c-99 -15 -90 -7 -90 -74 0
-43 4 -59 12 -57 8 3 11 23 9 56 -1 32 2 52 8 52 6 0 11 -21 11 -50 0 -47 2
-50 25 -50 19 0 25 5 26 23 l0 22 11 -22 c7 -14 20 -23 34 -23 28 0 31 6 40
57 4 30 2 44 -11 56 -16 17 -26 18 -75 10z"/>
<path fill="#000000" stroke="none" d="M2272 3485 c0 -16 2 -22 5 -12 2 9 2
23 0 30 -3 6 -5 -1 -5 -18z"/>
<path fill="#000000" stroke="none" d="M2015 3361 c-39 -4 -76 -10 -83 -15
-21 -13 -13 -36 13 -36 24 0 25 -3 25 -55 0 -52 1 -55 19 -45 11 5 35 10 53
10 32 0 33 1 33 40 0 30 -4 42 -17 46 -27 8 -22 34 6 34 22 0 26 -6 31 -47 4
-27 9 -56 12 -66 7 -27 28 -14 26 17 -2 27 7 30 80 29 13 0 17 9 17 38 0 21 5
41 10 44 10 6 14 -12 10 -52 -1 -19 4 -23 29 -23 28 0 31 3 31 29 0 16 3 36 6
45 5 14 -8 16 -112 15 -66 -1 -151 -5 -189 -8z"/>
<path fill="#ffffff" stroke="none" d="M2297 3324 c-3 -3 -12 -4 -19 -1 -8 3
-5 6 6 6 11 1 17 -2 13 -5z"/>
<path fill="#ffffff" stroke="none" d="M2170 3301 c0 -8 -52 -23 -59 -16 -1 2
0 8 4 14 8 13 55 15 55 2z"/>
<path fill="#ffffff" stroke="none" d="M2030 3265 c0 -19 -4 -35 -10 -35 -5 0
-10 16 -10 35 0 19 5 35 10 35 6 0 10 -16 10 -35z"/>
<path fill="#000000" stroke="none" d="M2367 3346 c-6 -15 1 -26 15 -26 11 0
10 27 -1 34 -5 3 -11 0 -14 -8z"/>
<path fill="#000000" stroke="none" d="M2279 3261 c-26 -6 -29 -17 -14 -53 6
-15 -2 -17 -72 -20 -78 -3 -78 -3 -81 -32 -3 -27 -2 -28 13 -13 21 21 68 22
85 2 10 -12 16 -13 27 -3 8 6 33 14 56 17 29 4 43 11 45 24 3 13 -3 17 -26 17
-17 0 -32 6 -36 15 -4 11 1 15 19 15 18 0 25 5 25 20 0 11 -3 19 -7 19 -5 -1
-20 -4 -34 -8z"/>
<path fill="#000000" stroke="none" d="M2380 3210 c0 -33 4 -60 10 -60 6 0 10
5 10 10 0 6 11 10 25 10 22 0 25 -3 19 -25 -5 -19 -2 -25 9 -25 9 0 19 5 22
10 3 6 1 10 -6 10 -7 0 -4 6 6 14 16 12 17 16 6 30 -7 9 -28 16 -45 16 -31 0
-32 1 -28 35 3 27 1 35 -12 35 -13 0 -16 -12 -16 -60z"/>
<path fill="#000000" stroke="none" d="M2156 3245 c-3 -10 1 -15 12 -15 9 0
27 -3 40 -6 18 -5 22 -2 22 15 0 17 -6 21 -34 21 -21 0 -36 -6 -40 -15z"/>
<path fill="#000000" stroke="none" d="M1846 3207 c-15 -19 -26 -40 -26 -48 0
-8 6 -4 16 9 8 12 22 22 30 22 8 0 14 4 14 9 0 5 3 16 6 25 11 28 -14 17 -40
-17z"/>
<path fill="#000000" stroke="none" d="M1954 3181 c-2 -2 -4 -10 -4 -18 0 -9
18 -13 66 -13 57 0 65 2 62 18 -3 14 -14 17 -61 17 -32 0 -60 -2 -63 -4z"/>
<path fill="#000000" stroke="none" d="M1861 3164 c0 -11 3 -14 6 -6 3 7 2 16
-1 19 -3 4 -6 -2 -5 -13z"/>
<path fill="#000000" stroke="none" d="M1647 3142 c-10 -10 -14 -22 -10 -25 3
-4 2 -7 -4 -7 -6 0 -45 -40 -87 -90 -70 -83 -91 -120 -66 -120 6 0 10 6 10 14
0 8 33 54 74 103 41 48 74 91 73 94 -1 4 7 16 17 28 11 12 17 21 14 21 -3 0
-12 -8 -21 -18z"/>
<path fill="#000000" stroke="none" d="M1825 3130 c7 -12 32 -13 39 -2 2 4 -7
9 -20 10 -15 1 -22 -2 -19 -8z"/>
<path fill="#000000" stroke="none" d="M2482 3118 c-7 -7 -12 -17 -12 -24 0
-6 -10 -14 -22 -17 -13 -4 -31 -12 -41 -19 -15 -11 -6 -13 60 -11 91 3 123 9
123 24 0 6 -9 8 -21 4 -11 -4 -32 -4 -45 -1 -19 5 -24 11 -19 25 7 23 -7 35
-23 19z"/>
<path fill="#000000" stroke="none" d="M2373 3105 c-9 -25 2 -27 22 -5 17 18
17 20 1 20 -9 0 -19 -7 -23 -15z"/>
<path fill="#000000" stroke="none" d="M1721 3096 c-15 -18 -11 -58 7 -64 8
-2 12 7 12 28 0 35 0 35 82 14 15 -3 35 -3 45 0 30 12 -1 26 -69 31 -50 4 -68
2 -77 -9z"/>
<path fill="#000000" stroke="none" d="M2075 3080 c-25 -11 1 -11 35 0 20 6
21 8 5 8 -11 0 -29 -3 -40 -8z"/>
<path fill="#000000" stroke="none" d="M1767 3064 c-8 -8 3 -34 14 -34 5 0 9
9 9 20 0 19 -11 26 -23 14z"/>
<path fill="#000000" stroke="none" d="M1977 3038 c-32 -17 -68 -45 -80 -62
-22 -31 -22 -31 23 6 25 20 65 48 90 62 64 37 36 32 -33 -6z"/>
<path fill="#000000" stroke="none" d="M2616 3054 c-22 -21 -20 -43 5 -70 20
-21 20 -24 5 -39 -32 -33 -11 -85 34 -85 l30 0 0 99 c0 94 -1 99 -22 105 -32
8 -35 8 -52 -10z"/>
<path fill="#000000" stroke="none" d="M1630 3031 c0 -15 34 -31 65 -31 17 0
24 -4 19 -12 -4 -7 -3 -8 4 -4 22 14 12 33 -20 39 -18 3 -41 8 -50 12 -11 4
-18 3 -18 -4z"/>
<path fill="#000000" stroke="none" d="M2035 3022 c-13 -9 -15 -152 -2 -152 5
0 11 9 14 20 6 23 8 24 34 10 15 -8 19 -7 19 5 0 8 -6 15 -14 15 -13 0 -13 4
0 28 7 15 14 39 14 55 0 23 -4 27 -27 27 -16 0 -32 -4 -38 -8z"/>
<path fill="#000000" stroke="none" d="M2110 3013 c0 -40 13 -62 42 -72 20 -7
36 -7 49 -1 14 8 17 7 13 -3 -7 -20 23 -47 52 -47 20 0 24 5 24 29 0 16 -9 39
-19 52 -18 22 -20 22 -26 7 -10 -26 -25 -22 -25 7 0 29 -26 45 -74 45 -28 0
-36 -4 -36 -17z"/>
<path fill="#000000" stroke="none" d="M2737 3024 c-9 -9 -8 -173 2 -277 3
-43 4 -80 1 -82 -3 -2 -7 -64 -8 -139 -3 -130 -3 -136 16 -136 27 0 33 31 31
151 -1 80 -4 101 -18 109 -14 8 -13 9 4 10 19 0 20 6 19 183 -1 172 -2 182
-20 185 -11 2 -23 0 -27 -4z"/>
<path fill="#000000" stroke="none" d="M2285 2984 c15 -21 25 -51 25 -71 0
-32 22 -55 37 -39 11 10 -17 84 -43 116 -36 42 -49 38 -19 -6z"/>
<path fill="#000000" stroke="none" d="M1976 2975 c-9 -13 -17 -35 -19 -47 -2
-19 3 -23 28 -23 18 0 30 5 29 13 -1 6 -2 28 -2 47 -2 41 -13 44 -36 10z"/>
<path fill="#000000" stroke="none" d="M1643 2943 c-20 -4 -23 -10 -23 -55 0
-42 3 -49 16 -44 9 3 24 6 35 6 16 0 19 7 19 50 0 52 -1 52 -47 43z"/>
<path fill="#000000" stroke="none" d="M1730 2900 l0 -50 35 0 c32 0 35 2 35
30 0 19 7 33 20 40 35 19 22 30 -35 30 l-55 0 0 -50z"/>
<path fill="#000000" stroke="none" d="M1552 2931 c-8 -5 -12 -23 -10 -47 3
-34 6 -39 31 -42 28 -3 28 -3 25 45 -3 49 -18 63 -46 44z"/>
<path fill="#000000" stroke="none" d="M2838 2730 c-1 -115 -2 -222 -2 -236
-1 -23 6 -28 69 -49 39 -12 104 -39 145 -59 71 -34 126 -48 104 -26 -14 14
-199 89 -257 104 l-48 12 1 217 c0 120 3 224 6 232 4 8 1 15 -5 15 -8 0 -12
-64 -13 -210z"/>
<path fill="#000000" stroke="none" d="M2130 2910 c0 -19 3 -21 12 -12 9 9 9
15 0 24 -9 9 -12 7 -12 -12z"/>
<path fill="#000000" stroke="none" d="M1411 2668 c0 -134 3 -260 6 -280 5
-34 9 -38 34 -38 l28 0 0 73 c-1 39 -5 78 -11 85 -7 8 -7 12 1 12 7 0 11 55
10 180 l0 180 -29 15 c-16 8 -32 15 -35 15 -3 0 -5 -109 -4 -242z"/>
<path fill="#000000" stroke="none" d="M1820 2868 c1 -31 1 -32 15 -13 17 21
15 37 -3 43 -8 2 -12 -8 -12 -30z"/>
<path fill="#000000" stroke="none" d="M2256 2778 c3 -46 8 -85 10 -87 2 -2
15 0 29 3 25 6 26 8 23 84 l-3 77 -33 3 -33 3 7 -83z"/>
<path fill="#000000" stroke="none" d="M1951 2778 c4 -40 8 -79 8 -85 1 -7 10
-13 20 -13 17 0 20 10 26 76 8 81 3 94 -40 94 -20 0 -20 -4 -14 -72z"/>
<path fill="#000000" stroke="none" d="M2020 2776 c0 -79 4 -85 44 -70 22 8
23 134 2 134 -8 0 -21 3 -30 6 -14 5 -16 -5 -16 -70z"/>
<path fill="#000000" stroke="none" d="M2180 2786 c0 -57 3 -65 21 -71 32 -10
40 6 37 71 -3 56 -4 59 -30 62 l-28 3 0 -65z"/>
<path fill="#000000" stroke="none" d="M2129 2836 c-2 -2 -3 -81 -1 -175 3
-148 5 -171 19 -171 12 0 13 3 4 13 -7 10 -9 64 -5 175 5 144 2 176 -17 158z"/>
<path fill="#000000" stroke="none" d="M2620 2795 c0 -43 1 -45 30 -45 26 0
30 3 30 29 0 16 3 36 6 45 5 13 -1 16 -30 16 l-36 0 0 -45z"/>
<path fill="#000000" stroke="none" d="M2992 2780 c4 -48 6 -52 56 -85 28 -19
55 -35 60 -35 11 0 3 98 -10 123 -16 32 -37 20 -41 -25 -3 -42 -4 -42 -5 8 -2
44 -5 53 -24 58 -38 10 -40 8 -36 -44z"/>
<path fill="#000000" stroke="none" d="M1643 2813 c-27 -5 -35 -26 -27 -69 6
-31 9 -33 33 -27 34 8 42 21 39 62 -3 36 -9 41 -45 34z"/>
<path fill="#000000" stroke="none" d="M1730 2766 l0 -56 33 -1 32 -1 -30 -7
c-29 -6 -30 -8 -35 -71 l-5 -65 -85 -8 c-83 -8 -115 -20 -104 -38 3 -5 22 -9
43 -9 29 0 43 -6 54 -22 l16 -23 0 28 c1 27 2 27 64 26 54 -2 57 -3 22 -8 -36
-5 -40 -9 -43 -36 l-3 -30 13 25 c11 20 22 26 58 28 40 3 85 22 51 22 -9 0
-12 34 -10 148 l2 147 -36 3 -37 3 0 -55z"/>
<path fill="#000000" stroke="none" d="M1826 2805 c-7 -19 -8 -121 -1 -113 11
10 25 112 16 121 -5 5 -11 1 -15 -8z"/>
<path fill="#000000" stroke="none" d="M2460 2779 c-6 -22 -14 -48 -17 -57 -3
-9 5 -3 17 13 l22 30 -6 -30 c-16 -74 -18 -115 -8 -115 31 0 48 114 22 145
-14 17 -5 35 9 19 5 -5 16 -31 24 -59 13 -42 16 -45 16 -20 1 40 -34 115 -53
115 -9 0 -20 -16 -26 -41z"/>
<path fill="#000000" stroke="none" d="M1540 2745 c0 -41 2 -45 24 -45 17 0
26 7 30 26 10 39 -2 64 -30 64 -22 0 -24 -4 -24 -45z"/>
<path fill="#000000" stroke="none" d="M2620 2645 l0 -95 33 0 c29 0 32 3 32
30 0 17 -4 30 -9 30 -5 0 -3 7 4 15 19 23 4 48 -25 43 -13 -3 -22 -1 -19 3 3
5 13 9 23 9 12 0 20 9 23 25 6 30 2 35 -34 35 l-28 0 0 -95z"/>
<path fill="#000000" stroke="none" d="M2936 2664 c-3 -26 -5 -70 -5 -98 1
-50 2 -49 10 19 12 96 18 117 30 109 7 -4 8 -24 4 -54 -6 -44 -5 -49 15 -55
27 -9 40 8 40 53 0 26 -6 36 -32 52 -47 29 -55 25 -62 -26z"/>
<path fill="#000000" stroke="none" d="M1540 2678 c0 -7 -3 -30 -6 -50 -6 -37
-6 -38 25 -38 31 0 31 1 31 50 0 47 -2 50 -25 50 -14 0 -25 -6 -25 -12z"/>
<path fill="#000000" stroke="none" d="M1622 2638 c3 -49 5 -53 31 -56 27 -3
27 -2 27 52 0 56 0 56 -31 56 l-30 0 3 -52z"/>
<path fill="#000000" stroke="none" d="M2048 2663 c-27 -4 -28 -7 -28 -61 l0
-57 35 -1 35 -1 0 64 c0 35 -3 62 -7 62 -5 -1 -20 -4 -35 -6z"/>
<path fill="#000000" stroke="none" d="M2180 2625 c0 -44 1 -45 28 -39 37 9
44 17 40 50 -2 25 -8 29 -35 32 -33 3 -33 3 -33 -43z"/>
<path fill="#000000" stroke="none" d="M2267 2663 c-4 -3 -7 -42 -7 -85 0 -72
2 -79 23 -87 21 -8 22 -5 28 48 13 114 12 131 -14 131 -13 0 -27 -3 -30 -7z"/>
<path fill="#000000" stroke="none" d="M1965 2644 c-6 -2 -9 -36 -8 -77 2 -92
3 -96 13 -72 7 16 9 16 9 4 1 -9 8 -19 16 -23 13 -4 15 9 15 84 0 79 -2 90
-17 89 -10 0 -22 -2 -28 -5z"/>
<path fill="#000000" stroke="none" d="M3040 2615 c0 -20 9 -53 20 -75 11 -22
20 -56 19 -77 l-1 -38 -9 43 c-14 74 -31 83 -48 25 l-10 -38 2 50 c2 48 1 50
-25 53 -27 3 -28 2 -28 -46 0 -49 0 -49 43 -65 91 -34 93 -34 101 19 3 26 6
73 6 106 0 54 -2 59 -26 68 -39 15 -44 13 -44 -25z"/>
<path fill="#000000" stroke="none" d="M3212 2595 c-14 -31 -15 -35 -3 -35 8
0 23 51 17 58 -2 1 -8 -9 -14 -23z"/>
<path fill="#000000" stroke="none" d="M2457 2564 c-11 -11 -8 -49 5 -62 21
-21 29 -13 26 25 -3 35 -17 51 -31 37z"/>
<path fill="#000000" stroke="none" d="M2197 2533 c-6 -34 -1 -43 24 -43 15 0
19 7 19 35 0 28 -4 35 -19 35 -12 0 -20 -9 -24 -27z"/>
<path fill="#000000" stroke="none" d="M2633 2533 c-8 -3 -13 -26 -13 -63 0
-53 -2 -59 -22 -63 -13 -2 1 -5 30 -6 l52 -1 0 70 c0 72 -6 80 -47 63z"/>
<path fill="#000000" stroke="none" d="M2030 2501 c0 -12 5 -21 10 -21 6 0 10
6 10 14 0 8 -4 18 -10 21 -5 3 -10 -3 -10 -14z"/>
<path fill="#000000" stroke="none" d="M2070 2491 c0 -29 -1 -30 -65 -36 -36
-4 -68 -11 -71 -16 -5 -9 355 -2 384 7 7 2 10 8 7 14 -4 6 -56 10 -125 10
-111 0 -118 1 -113 19 3 10 0 22 -6 25 -7 5 -11 -4 -11 -23z"/>
<path fill="#000000" stroke="none" d="M2861 2506 c2 -1 19 -8 37 -14 26 -9
32 -8 32 4 0 10 -11 14 -37 14 -20 0 -34 -2 -32 -4z"/>
<path fill="#000000" stroke="none" d="M2434 2449 c-3 -6 -20 -19 -38 -30 -18
-11 -24 -19 -15 -19 9 0 28 9 42 20 30 24 77 27 77 5 0 -10 -11 -15 -35 -15
-34 0 -75 -27 -75 -50 0 -5 -15 -16 -34 -25 -61 -29 -80 -115 -27 -123 28 -4
37 20 23 64 -11 36 -3 44 18 20 6 -8 10 -31 9 -50 -4 -42 3 -50 35 -42 24 6
24 8 19 81 -6 73 -5 75 17 75 22 0 22 -2 15 -67 -4 -38 -8 -72 -8 -77 -1 -5
42 -9 95 -10 84 -1 99 -4 113 -21 16 -19 16 -19 5 3 -6 13 -18 26 -25 29 -12
4 -12 10 0 40 19 45 19 49 -2 57 -11 5 -22 1 -30 -10 -18 -24 -16 -39 2 -24
22 18 20 -13 -2 -36 -17 -17 -18 -16 -24 20 -8 51 -49 136 -66 136 -8 0 -13
12 -13 30 0 28 -3 30 -34 30 -19 0 -38 -5 -42 -11z"/>
<path fill="#ffffff" stroke="none" d="M2546 2265 c-4 -14 -13 -25 -21 -25
-19 0 -19 10 1 38 19 28 29 22 20 -13z"/>
<path fill="#000000" stroke="none" d="M1797 2444 c-11 -12 3 -24 28 -24 13 0
26 -6 28 -12 3 -8 6 -6 6 4 1 25 -45 48 -62 32z"/>
<path fill="#000000" stroke="none" d="M1740 2405 c0 -13 4 -14 20 -5 11 6 20
13 20 15 0 3 -9 5 -20 5 -11 0 -20 -7 -20 -15z"/>
<path fill="#000000" stroke="none" d="M1577 2403 c-14 -14 -6 -20 21 -16 l27
3 -25 -11 c-23 -11 -23 -12 -6 -17 20 -4 50 24 40 39 -6 11 -48 12 -57 2z"/>
<path fill="#000000" stroke="none" d="M2066 2374 c-4 -9 -4 -19 -1 -22 2 -3
7 3 11 12 4 9 4 19 1 22 -2 3 -7 -3 -11 -12z"/>
<path fill="#000000" stroke="none" d="M1922 2361 c-102 -17 -117 -36 -29 -36
l56 0 -6 -30 c-3 -16 -12 -40 -20 -53 -19 -31 -9 -43 27 -30 37 12 45 25 30
43 -17 20 -4 64 26 87 23 19 33 39 17 37 -5 -1 -50 -9 -101 -18z"/>
<path fill="#000000" stroke="none" d="M2137 2373 c-4 -3 -7 -15 -7 -25 0 -13
-8 -18 -30 -18 -34 0 -38 -7 -14 -24 10 -8 14 -22 12 -37 -4 -24 -7 -21 -22
24 -4 12 -16 17 -41 17 -36 0 -43 -8 -24 -27 8 -8 6 -20 -6 -43 -9 -17 -15
-33 -13 -34 2 -1 58 0 126 2 111 3 122 5 122 22 0 11 -7 23 -16 28 -13 7 -12
11 10 26 47 30 26 61 -35 49 -28 -5 -30 -4 -23 21 5 21 3 26 -13 26 -11 0 -23
-3 -26 -7z"/>
<path fill="#ffffff" stroke="none" d="M2160 2269 c0 -18 -4 -28 -10 -24 -5 3
-10 20 -10 36 0 18 4 28 10 24 6 -3 10 -20 10 -36z"/>
<path fill="#ffffff" stroke="none" d="M2047 2258 c-3 -8 -6 -5 -6 6 -1 11 2
17 5 13 3 -3 4 -12 1 -19z"/>
<path fill="#000000" stroke="none" d="M1671 2333 c-8 -15 -13 -16 -30 -5 -44
26 -60 12 -56 -48 1 -19 -2 -41 -7 -47 -7 -9 -5 -15 7 -19 9 -4 20 -1 25 6 5
8 9 9 14 1 9 -14 26 -14 26 0 0 6 -9 13 -20 16 -31 8 -23 23 13 23 21 0 28 -3
19 -9 -20 -12 33 -51 69 -51 28 0 28 1 45 63 4 11 -2 20 -18 26 -23 10 -23 10
5 10 20 1 27 6 27 20 0 26 -18 37 -26 16 -5 -12 -9 -13 -21 -3 -11 9 -16 9
-23 -2 -7 -12 -10 -11 -16 3 -8 22 -20 22 -33 0z"/>
<path fill="#ffffff" stroke="none" d="M1720 2286 c0 -13 3 -31 6 -40 4 -10 1
-16 -9 -16 -18 0 -25 17 -21 50 3 32 2 30 14 30 6 0 10 -11 10 -24z"/>
<path fill="#ffffff" stroke="none" d="M1670 2290 c0 -5 -11 -10 -25 -10 -14
0 -25 5 -25 10 0 6 11 10 25 10 14 0 25 -4 25 -10z"/>
<path fill="#000000" stroke="none" d="M1410 2303 c0 -10 -3 -35 -7 -56 -6
-38 -5 -39 23 -35 16 2 28 8 26 13 -2 6 -10 9 -18 7 -15 -3 -18 15 -8 42 4 10
18 16 39 16 48 0 95 11 89 21 -3 5 -36 9 -75 9 -59 0 -69 -3 -69 -17z"/>
<path fill="#000000" stroke="none" d="M2716 2285 c-8 -19 -20 -35 -25 -35 -6
0 -11 -4 -11 -10 0 -18 28 -11 44 11 l14 21 14 -22 c18 -31 151 -89 163 -71 2
5 -13 13 -33 19 -55 17 -132 70 -132 92 0 34 -19 31 -34 -5z"/>
<path fill="#000000" stroke="none" d="M3020 2307 c0 -20 89 -79 108 -72 13 5
9 11 -18 27 -19 11 -47 29 -62 40 -21 14 -28 15 -28 5z"/>
<path fill="#000000" stroke="none" d="M1802 2260 c-9 -35 -8 -42 9 -51 27
-14 57 5 67 44 5 17 8 33 7 35 -2 2 -19 5 -38 8 -33 4 -35 2 -45 -36z"/>
<path fill="#ffffff" stroke="none" d="M1850 2250 c-12 -23 -30 -27 -30 -7 0
17 10 27 27 27 11 0 11 -5 3 -20z"/>
<path fill="#000000" stroke="none" d="M2806 2291 c9 -8 162 -57 199 -63 15
-2 20 3 21 20 1 18 -2 21 -15 16 -24 -10 -56 -6 -123 16 -65 21 -99 26 -82 11z"/>
<path fill="#000000" stroke="none" d="M1482 2248 c-28 -28 -2 -53 44 -42 18
5 24 12 22 28 -4 25 -46 34 -66 14z"/>
<path fill="#000000" stroke="none" d="M3195 2220 c-6 -10 49 -43 58 -33 4 3
2 14 -4 24 -10 20 -44 26 -54 9z"/>
<path fill="#000000" stroke="none" d="M2698 2069 c-10 -6 -10 -13 -2 -26 13
-21 61 -30 77 -14 23 23 -44 59 -75 40z"/>
<path fill="#000000" stroke="none" d="M2446 2062 c-3 -3 -6 -106 -6 -229 0
-172 3 -223 13 -223 9 0 9 -2 -1 -9 -10 -6 -14 -63 -18 -236 -2 -125 -7 -232
-11 -238 -7 -12 16 -27 43 -27 19 0 22 7 28 77 3 42 6 230 6 418 0 188 3 357
6 374 l7 31 67 0 c38 0 75 3 84 6 21 8 20 31 -1 42 -21 11 -209 23 -217 14z"/>
<path fill="#000000" stroke="none" d="M1296 2033 c-3 -10 -6 -108 -5 -218 0
-110 -2 -316 -3 -458 l-3 -257 44 0 c42 0 43 1 36 27 -3 14 -6 140 -6 280 1
219 -1 253 -14 253 -19 0 -19 7 0 26 12 12 15 44 15 152 0 119 3 141 19 166
11 17 18 33 15 38 -3 4 -25 8 -49 8 -33 0 -45 -4 -49 -17z"/>
<path fill="#000000" stroke="none" d="M1658 2043 c-114 -2 -188 -7 -188 -13
0 -6 -9 -10 -20 -10 -35 0 -42 -33 -35 -161 6 -100 10 -119 24 -119 14 -1 14
-2 -1 -11 -15 -8 -18 -25 -18 -97 0 -98 7 -115 41 -110 l24 3 2 172 2 172 -37
3 -37 3 45 25 c29 16 50 37 60 59 13 31 17 33 52 28 21 -3 41 -1 44 4 3 5 23
9 45 9 32 0 39 -3 39 -20 0 -17 -7 -20 -50 -20 -43 0 -50 -3 -50 -20 0 -14 7
-20 24 -20 56 0 87 13 102 43 l16 30 89 -7 c72 -5 94 -4 111 9 13 8 34 15 48
15 30 0 57 16 46 27 -9 9 -111 11 -378 6z"/>
<path fill="#ffffff" stroke="none" d="M1480 1985 c0 -14 -4 -25 -10 -25 -5 0
-10 11 -10 25 0 14 5 25 10 25 6 0 10 -11 10 -25z"/>
<path fill="#000000" stroke="none" d="M2830 1958 c0 -58 0 -58 29 -58 25 0
30 5 34 28 4 25 4 25 6 -5 1 -27 5 -33 24 -34 12 -1 37 -3 55 -5 l32 -2 0 52
0 53 -90 15 -90 15 0 -59z"/>
<path fill="#000000" stroke="none" d="M2042 1933 l3 -57 35 0 c34 0 35 1 38
43 4 51 -10 71 -50 71 l-29 0 3 -57z"/>
<path fill="#000000" stroke="none" d="M1945 1936 c-9 -56 -3 -66 41 -66 l35
0 -3 53 c-3 50 -4 52 -35 55 -30 3 -32 2 -38 -42z"/>
<path fill="#000000" stroke="none" d="M2166 1949 c-3 -17 -6 -42 -6 -56 0
-23 3 -24 48 -21 l47 3 3 53 3 52 -44 0 c-42 0 -45 -2 -51 -31z"/>
<path fill="#000000" stroke="none" d="M2545 1973 c-6 -5 -8 -102 -5 -273 l5
-265 5 255 5 255 32 3 c31 3 32 2 38 -42 7 -42 10 -46 36 -46 28 0 29 2 29 45
0 33 5 47 19 54 10 6 21 7 25 4 3 -3 6 -57 6 -120 0 -71 4 -113 10 -113 7 0
10 43 8 123 l-3 122 -100 3 c-55 1 -104 -1 -110 -5z"/>
<path fill="#000000" stroke="none" d="M1876 1954 c-3 -9 -6 -27 -6 -40 0 -19
5 -24 24 -24 19 0 26 7 31 31 5 22 3 34 -6 40 -21 13 -36 11 -43 -7z"/>
<path fill="#000000" stroke="none" d="M2287 1963 c-4 -3 -7 -25 -7 -49 0 -39
2 -42 30 -46 31 -5 31 -4 28 35 -3 39 -35 77 -51 60z"/>
<path fill="#000000" stroke="none" d="M3167 1953 c-4 -3 -6 -180 -5 -392 1
-212 4 -341 7 -286 6 94 7 100 28 103 29 4 32 18 35 162 2 89 0 117 -11 126
-12 9 -10 15 10 35 l24 24 8 -60 c8 -60 5 -318 -3 -344 -4 -11 5 -14 43 -12
l47 3 0 -36 c0 -19 7 -42 16 -50 17 -17 79 -23 69 -6 -3 6 -13 10 -21 10 -11
0 -14 15 -14 66 l0 67 -38 -7 -38 -6 5 38 c5 33 6 34 9 9 3 -25 7 -28 35 -25
30 3 32 6 35 45 3 39 1 42 -29 48 -22 5 -34 3 -40 -6 -6 -10 -9 -6 -9 13 0 25
2 27 26 18 53 -21 54 -19 54 105 0 106 -1 115 -19 115 -10 0 -25 7 -32 16 -13
15 -11 17 19 12 l32 -5 0 83 c0 46 -4 85 -10 89 -5 3 -39 8 -76 12 l-67 6 5
-79 c3 -43 9 -87 13 -96 6 -15 3 -16 -25 -5 l-33 12 7 87 c3 48 3 94 0 103 -6
15 -45 21 -57 8z"/>
<path fill="#000000" stroke="none" d="M1785 1941 c-3 -5 -1 -12 5 -16 5 -3
10 1 10 9 0 18 -6 21 -15 7z"/>
<path fill="#000000" stroke="none" d="M1733 1902 c-9 -5 -11 -24 -6 -60 3
-28 10 -49 14 -46 5 3 17 0 26 -5 15 -9 13 -10 -14 -11 -33 0 -33 0 -33 -50 0
-40 4 -52 18 -56 9 -3 25 -10 35 -15 16 -9 17 0 17 121 0 128 0 130 -22 130
-13 0 -29 -4 -35 -8z"/>
<path fill="#000000" stroke="none" d="M1604 1885 c3 -9 6 -34 6 -56 0 -39 0
-39 41 -39 l40 0 -3 53 -3 52 -44 3 c-37 3 -43 1 -37 -13z"/>
<path fill="#000000" stroke="none" d="M1547 1873 c-4 -3 -7 -25 -7 -49 0 -37
3 -41 19 -37 20 5 38 64 26 83 -7 11 -28 13 -38 3z"/>
<path fill="#000000" stroke="none" d="M2827 1853 c-2 -4 -2 -43 0 -85 6 -77
6 -78 33 -78 31 0 40 24 40 111 0 42 -3 49 -19 49 -11 0 -26 3 -34 6 -8 3 -17
2 -20 -3z"/>
<path fill="#000000" stroke="none" d="M1862 1788 c3 -55 6 -63 24 -66 24 -3
34 19 34 79 0 36 -12 49 -46 49 -12 0 -14 -13 -12 -62z"/>
<path fill="#000000" stroke="none" d="M2308 1843 c-27 -4 -28 -7 -28 -64 l0
-59 35 0 35 0 0 65 c0 36 -3 64 -7 64 -5 -1 -20 -4 -35 -6z"/>
<path fill="#000000" stroke="none" d="M2643 1840 c-28 -11 -31 -50 -5 -50 16
-1 16 -2 -2 -15 -24 -18 -12 -35 25 -35 29 0 29 1 29 55 0 58 -4 62 -47 45z"/>
<path fill="#000000" stroke="none" d="M2073 1832 c-32 -3 -33 -4 -33 -53 l0
-49 34 0 c38 0 46 12 46 65 0 39 -3 42 -47 37z"/>
<path fill="#000000" stroke="none" d="M2210 1833 c-48 -6 -54 -14 -46 -68 l7
-46 47 3 47 3 0 54 c0 58 -2 60 -55 54z"/>
<path fill="#000000" stroke="none" d="M2912 1768 c3 -68 4 -72 29 -79 27 -7
27 -6 34 64 7 75 2 87 -43 87 -22 0 -23 -3 -20 -72z"/>
<path fill="#000000" stroke="none" d="M1937 1823 c-4 -3 -7 -28 -7 -55 l0
-49 43 3 42 3 3 53 3 52 -39 0 c-21 0 -42 -3 -45 -7z"/>
<path fill="#000000" stroke="none" d="M3014 1695 c0 -71 1 -99 3 -62 2 37 2
96 0 130 -2 34 -3 4 -3 -68z"/>
<path fill="#000000" stroke="none" d="M1612 1723 c3 -48 3 -48 41 -51 l37 -3
0 50 0 51 -41 0 -40 0 3 -47z"/>
<path fill="#000000" stroke="none" d="M1540 1700 c0 -25 4 -30 25 -30 21 0
25 5 25 30 0 25 -4 30 -25 30 -21 0 -25 -5 -25 -30z"/>
<path fill="#000000" stroke="none" d="M2624 1716 c-11 -29 1 -51 29 -54 17
-2 27 1 27 10 0 7 3 23 6 36 6 19 3 22 -25 22 -18 0 -34 -6 -37 -14z"/>
<path fill="#000000" stroke="none" d="M2736 1694 c-8 -21 -8 -213 0 -253 14
-70 24 -22 24 119 0 136 -7 177 -24 134z"/>
<path fill="#000000" stroke="none" d="M1968 1682 c-27 -3 -28 -6 -28 -58 l0
-54 35 0 35 0 0 54 c0 60 -2 63 -42 58z"/>
<path fill="#000000" stroke="none" d="M2050 1631 l0 -61 40 0 41 0 -3 58 -3
57 -37 3 -38 3 0 -60z"/>
<path fill="#000000" stroke="none" d="M2161 1630 l2 -60 54 0 53 0 0 60 0 60
-56 0 -55 0 2 -60z"/>
<path fill="#000000" stroke="none" d="M2287 1684 c-4 -4 -7 -31 -7 -61 l0
-53 35 0 36 0 -3 58 c-3 53 -5 57 -28 60 -14 2 -29 0 -33 -4z"/>
<path fill="#000000" stroke="none" d="M1860 1625 c0 -54 0 -55 30 -55 30 0
30 1 30 55 0 54 0 55 -30 55 -30 0 -30 -1 -30 -55z"/>
<path fill="#000000" stroke="none" d="M2847 1653 c-15 -4 -17 -14 -15 -61 3
-54 5 -57 31 -60 24 -3 27 0 28 30 1 18 5 44 9 58 6 19 8 9 9 -37 l1 -63 31 0
31 0 -4 55 c-3 31 -9 60 -14 64 -12 11 -83 21 -107 14z"/>
<path fill="#000000" stroke="none" d="M2622 1588 c3 -63 3 -63 33 -63 30 0
30 0 33 63 l3 62 -36 0 -36 0 3 -62z"/>
<path fill="#000000" stroke="none" d="M1726 1632 c-4 -6 4 -57 15 -102 3 -13
-20 -15 -163 -18 -101 -1 -168 -6 -168 -12 0 -11 319 -14 358 -4 20 6 22 12
22 69 0 57 -2 63 -22 69 -30 8 -36 7 -42 -2z"/>
<path fill="#000000" stroke="none" d="M1620 1597 c0 -42 3 -45 40 -39 27 4
30 8 30 38 0 32 -2 34 -35 34 -33 0 -35 -2 -35 -33z"/>
<path fill="#000000" stroke="none" d="M1530 1585 c0 -31 3 -35 25 -35 22 0
25 4 25 35 0 31 -3 35 -25 35 -22 0 -25 -4 -25 -35z"/>
<path fill="#000000" stroke="none" d="M2637 1494 c-3 -3 -1 -16 4 -28 12 -25
-3 -76 -22 -76 -7 0 -21 7 -31 17 -17 15 -18 14 -18 -22 0 -20 -7 -64 -16 -97
-8 -33 -13 -65 -11 -71 8 -21 28 45 34 109 6 61 6 61 25 42 14 -14 27 -18 45
-13 17 4 29 1 34 -7 5 -7 9 22 9 70 0 79 -1 82 -23 82 -13 0 -26 -3 -30 -6z"/>
<path fill="#000000" stroke="none" d="M2816 1477 c-3 -12 -6 -41 -6 -64 0
-41 1 -43 29 -43 28 0 30 2 36 55 4 31 6 57 4 59 -2 2 -16 6 -30 9 -22 6 -28
3 -33 -16z"/>
<path fill="#000000" stroke="none" d="M2022 1463 c-45 -25 -283 -224 -277
-233 3 -4 19 -10 36 -14 28 -5 30 -9 25 -32 -5 -17 -3 -23 4 -19 5 3 10 13 10
21 0 18 31 18 77 -1 48 -20 79 -19 103 5 29 29 25 64 -11 105 -31 35 -69 47
-69 21 0 -7 -7 -19 -15 -26 -27 -22 -16 -32 11 -11 34 27 49 26 68 -1 20 -28
20 -72 1 -88 -17 -14 -29 -12 -137 26 l-77 27 47 42 c53 47 207 165 216 165 3
0 6 -15 7 -32 0 -18 4 -42 8 -53 7 -16 9 -12 12 20 2 22 2 53 -1 68 l-5 27
-33 -17z"/>
<path fill="#000000" stroke="none" d="M2894 1466 c-3 -7 -4 -33 -2 -57 3 -42
5 -44 36 -47 l32 -3 0 60 0 61 -30 0 c-17 0 -33 -6 -36 -14z"/>
<path fill="#000000" stroke="none" d="M1530 1397 c41 -40 76 -69 78 -65 4 10
-129 137 -143 138 -5 0 24 -33 65 -73z"/>
<path fill="#000000" stroke="none" d="M1584 1456 c-8 -22 -1 -59 14 -64 8 -2
12 9 12 37 0 40 -15 55 -26 27z"/>
<path fill="#000000" stroke="none" d="M1640 1419 c0 -43 3 -50 18 -47 13 2
18 15 20 51 3 42 1 47 -17 47 -18 0 -21 -6 -21 -51z"/>
<path fill="#000000" stroke="none" d="M1737 1433 c-4 -3 -7 -11 -7 -17 0 -6
5 -5 12 2 6 6 9 14 7 17 -3 3 -9 2 -12 -2z"/>
<path fill="#000000" stroke="none" d="M2743 1382 c-11 -7 -16 -65 -16 -190 0
-60 9 -81 36 -82 13 0 8 198 -5 203 -10 4 -10 6 0 6 13 1 17 57 4 65 -4 2 -13
2 -19 -2z"/>
<path fill="#000000" stroke="none" d="M2327 1363 c-2 -5 2 -30 9 -58 7 -27
13 -41 13 -30 1 11 4 37 7 58 5 30 3 37 -9 37 -9 0 -18 -3 -20 -7z"/>
<path fill="#000000" stroke="none" d="M2667 1299 c-9 -17 -26 -33 -37 -36
-26 -7 -25 -25 1 -41 27 -17 46 -2 55 43 10 54 2 69 -19 34z"/>
<path fill="#000000" stroke="none" d="M2883 1317 c-35 -5 -63 -14 -63 -19 0
-6 17 -7 38 -4 20 3 58 8 85 11 26 3 47 10 47 16 0 11 -22 10 -107 -4z"/>
<path fill="#000000" stroke="none" d="M3500 1313 c0 -5 4 -15 10 -23 11 -18
25 -7 17 15 -6 15 -27 21 -27 8z"/>
<path fill="#000000" stroke="none" d="M2301 1296 c-1 -28 21 -96 31 -96 9 0
6 16 -18 80 -7 21 -13 27 -13 16z"/>
<path fill="#000000" stroke="none" d="M1541 1263 c19 -23 36 -39 38 -37 3 3
-12 21 -34 42 l-38 37 34 -42z"/>
<path fill="#000000" stroke="none" d="M2062 1270 c-12 -16 -22 -32 -22 -34 0
-12 49 18 55 32 11 30 -11 32 -33 2z"/>
<path fill="#000000" stroke="none" d="M1428 1263 c7 -3 16 -2 19 1 4 3 -2 6
-13 5 -11 0 -14 -3 -6 -6z"/>
<path fill="#000000" stroke="none" d="M2820 1234 c-6 -14 -10 -45 -10 -70 0
-36 3 -44 19 -44 14 0 20 10 25 46 10 73 8 94 -9 94 -9 0 -20 -12 -25 -26z"/>
<path fill="#000000" stroke="none" d="M1510 1233 c0 -21 42 -73 57 -72 15 0
14 2 -4 11 -12 6 -26 24 -32 39 -9 27 -21 39 -21 22z"/>
<path fill="#000000" stroke="none" d="M2660 1165 c-21 -35 -21 -65 0 -65 6 0
18 16 26 35 28 68 11 89 -26 30z"/>
<path fill="#000000" stroke="none" d="M2557 1153 c-8 -45 3 -59 33 -43 29 16
25 74 -6 78 -18 3 -22 -4 -27 -35z"/>
<path fill="#000000" stroke="none" d="M3128 1153 c-15 -4 -34 -50 -24 -60 9
-9 26 8 20 19 -4 6 1 17 11 24 21 15 18 22 -7 17z"/>
<path fill="#000000" stroke="none" d="M3164 1119 c-3 -6 -2 -15 4 -21 12 -12
64 2 70 20 5 15 -64 16 -74 1z"/>
</g>
</svg>
