<?xml version="1.0" standalone="no"?>
<!DOCTYPE svg PUBLIC "-//W3C//DTD SVG 20010904//EN"
 "http://www.w3.org/TR/2001/REC-SVG-20010904/DTD/svg10.dtd">
<svg version="1.0" xmlns="http://www.w3.org/2000/svg"
 width="504.500000pt" height="280.201372pt" viewBox="0 0 504.500000 280.201372"
 preserveAspectRatio="xMidYMid meet">
<metadata>
Created by potrace 1.16, written by Peter Selinger 2001-2019
</metadata>
<g transform="translate(-5.500000,398.392171) scale(0.100000,-0.100000)"
fill="#000000" stroke="none">
<path fill="#000000" stroke="none" d="M4150 3980 c-14 -5 -68 -28 -122 -53
-231 -109 -602 -190 -1101 -242 -81 -8 -156 -19 -167 -25 -10 -5 -29 -29 -42
-52 -22 -40 -26 -43 -58 -38 -19 3 -61 5 -93 4 -31 0 -52 3 -45 7 8 5 1 10
-18 15 -16 3 -42 16 -59 29 -46 33 -63 36 -82 16 -17 -17 -26 -17 -233 10
-370 47 -572 108 -811 244 -96 56 -122 64 -135 44 -3 -6 -8 -77 -11 -157 -5
-172 -22 -288 -64 -429 -55 -188 -170 -431 -281 -597 -195 -289 -447 -525
-647 -606 -70 -29 -80 -40 -57 -63 16 -16 14 -16 174 14 57 10 107 19 112 19
6 0 3 -18 -6 -40 -19 -48 -8 -70 37 -70 l29 0 0 -300 0 -300 -207 -2 -208 -3
0 -107 0 -107 2472 -6 c1359 -4 2494 -4 2522 0 l51 7 0 169 0 169 -153 0 -153
0 -2 218 c-1 119 1 316 4 436 6 219 6 219 26 195 11 -13 26 -39 34 -58 14 -30
18 -33 52 -28 20 2 59 0 86 -5 46 -10 51 -9 67 11 24 29 18 40 -42 80 -27 19
-88 74 -134 123 -46 48 -89 88 -95 88 -8 0 -11 -13 -8 -39 2 -29 0 -37 -10
-33 -7 2 -18 16 -23 29 -8 23 -14 25 -59 21 -33 -2 -50 1 -50 8 0 13 32 24 71
24 27 0 59 27 59 50 0 8 -20 39 -44 70 -225 286 -465 814 -506 1110 -6 47 -14
99 -16 117 -5 35 -18 43 -54 33z"/>
<path fill="#ffffff" stroke="none" d="M4160 3928 c0 -6 -3 -8 -6 -5 -4 3 -16
2 -28 -4 -20 -10 -20 -10 -2 5 24 19 36 20 36 4z"/>
<path fill="#ffffff" stroke="none" d="M4167 3873 c-3 -10 -5 -4 -5 12 0 17 2
24 5 18 2 -7 2 -21 0 -30z"/>
<path fill="#ffffff" stroke="none" d="M4060 3884 c0 -6 -107 -54 -118 -53 -4
0 20 13 53 29 71 33 65 31 65 24z"/>
<path fill="#ffffff" stroke="none" d="M3920 3820 c-8 -5 -19 -10 -25 -10 -5
0 -3 5 5 10 8 5 20 10 25 10 6 0 3 -5 -5 -10z"/>
<path fill="#ffffff" stroke="none" d="M3775 3770 c-11 -5 -29 -8 -40 -8 -16
0 -15 2 5 8 34 11 60 11 35 0z"/>
<path fill="#ffffff" stroke="none" d="M3690 3750 c-34 -11 -60 -11 -35 0 11
5 29 8 40 8 16 0 15 -2 -5 -8z"/>
<path fill="#ffffff" stroke="none" d="M4081 3625 c-27 -58 -52 -105 -55 -105
-3 0 17 46 44 103 28 56 50 111 51 122 1 17 2 17 6 2 2 -9 -18 -64 -46 -122z"/>
<path fill="#ffffff" stroke="none" d="M3617 3734 c-3 -3 -12 -4 -19 -1 -8 3
-5 6 6 6 11 1 17 -2 13 -5z"/>
<path fill="#ffffff" stroke="none" d="M3567 3724 c-3 -3 -12 -4 -19 -1 -8 3
-5 6 6 6 11 1 17 -2 13 -5z"/>
<path fill="#ffffff" stroke="none" d="M3467 3704 c-3 -3 -12 -4 -19 -1 -8 3
-5 6 6 6 11 1 17 -2 13 -5z"/>
<path fill="#ffffff" stroke="none" d="M3403 3693 c-7 -2 -19 -2 -25 0 -7 3
-2 5 12 5 14 0 19 -2 13 -5z"/>
<path fill="#ffffff" stroke="none" d="M3347 3684 c-3 -3 -12 -4 -19 -1 -8 3
-5 6 6 6 11 1 17 -2 13 -5z"/>
<path fill="#ffffff" stroke="none" d="M3223 3663 c-7 -2 -19 -2 -25 0 -7 3
-2 5 12 5 14 0 19 -2 13 -5z"/>
<path fill="#ffffff" stroke="none" d="M1807 3654 c-3 -3 -12 -4 -19 -1 -8 3
-5 6 6 6 11 1 17 -2 13 -5z"/>
<path fill="#ffffff" stroke="none" d="M3143 3653 c-7 -2 -19 -2 -25 0 -7 3
-2 5 12 5 14 0 19 -2 13 -5z"/>
<path fill="#ffffff" stroke="none" d="M3073 3643 c-13 -2 -35 -2 -50 0 -16 2
-5 4 22 4 28 0 40 -2 28 -4z"/>
<path fill="#ffffff" stroke="none" d="M2923 3633 c-13 -2 -35 -2 -50 0 -16 2
-5 4 22 4 28 0 40 -2 28 -4z"/>
<path fill="#ffffff" stroke="none" d="M2817 3624 c-3 -3 -12 -4 -19 -1 -8 3
-5 6 6 6 11 1 17 -2 13 -5z"/>
<path fill="#ffffff" stroke="none" d="M4140 3159 c-13 -112 -5 -175 21 -190
18 -9 19 -26 19 -244 0 -129 -3 -235 -6 -235 -3 0 -25 5 -50 11 l-44 11 0 205
c0 172 2 205 15 209 12 5 15 28 15 118 0 124 -9 150 -51 144 -22 -3 -25 -9
-33 -85 -11 -105 -3 -153 26 -153 21 0 21 -1 3 -13 -16 -12 -19 -33 -22 -163
-2 -82 -1 -183 4 -224 8 -73 9 -75 38 -80 l30 -5 3 -438 2 -437 25 0 26 0 -3
425 -3 425 23 0 c12 0 25 7 28 15 11 28 24 15 24 -23 0 -27 -7 -45 -21 -58
-20 -18 -21 -24 -17 -401 1 -210 7 -385 11 -390 5 -4 47 -10 93 -12 71 -3 84
-1 84 13 0 8 -11 18 -24 22 l-25 6 6 391 c3 216 7 393 8 395 1 1 19 -4 41 -11
l39 -14 3 -417 2 -416 -205 0 -206 0 1 493 2 492 -41 3 c-45 3 -55 -12 -18
-29 l22 -10 -3 -474 -2 -475 -35 0 -36 0 6 488 c3 268 7 650 10 850 4 233 2
369 -5 381 -7 14 -6 22 4 31 8 6 32 40 53 75 21 36 41 65 46 65 17 0 5 -54
-18 -82 -37 -43 -34 -93 5 -113 39 -20 65 -7 85 42 15 34 14 38 -6 59 -20 21
-21 30 -16 104 6 70 11 87 39 127 l33 45 3 -178 c2 -99 -2 -222 -8 -275z"/>
<path fill="#ffffff" stroke="none" d="M2373 3533 c-9 -60 -48 -154 -98 -242
-26 -45 -48 -81 -50 -81 -2 0 18 46 44 103 27 56 61 137 76 180 15 42 29 77
31 77 1 0 0 -17 -3 -37z"/>
<path fill="#ffffff" stroke="none" d="M2617 3534 c-3 -3 -12 -4 -19 -1 -8 3
-5 6 6 6 11 1 17 -2 13 -5z"/>
<path fill="#ffffff" stroke="none" d="M1280 3476 c0 -6 -7 -1 -15 10 -8 10
-14 26 -14 34 0 16 28 -28 29 -44z"/>
<path fill="#ffffff" stroke="none" d="M3980 3440 c-6 -11 -13 -20 -16 -20 -2
0 0 9 6 20 6 11 13 20 16 20 2 0 0 -9 -6 -20z"/>
<path fill="#ffffff" stroke="none" d="M3943 3379 c-10 -17 -30 -45 -46 -62
-15 -18 -9 -5 15 31 44 65 62 83 31 31z"/>
<path fill="#ffffff" stroke="none" d="M4230 3373 c7 -21 28 -73 46 -116 l34
-78 0 -356 c0 -320 -2 -355 -16 -349 -9 3 -27 6 -40 6 l-24 0 0 240 c0 132 4
240 8 240 31 0 43 195 19 290 -11 41 -15 45 -40 43 -22 -1 -27 2 -23 15 2 9 8
36 11 60 4 23 8 42 10 42 2 0 9 -17 15 -37z"/>
<path fill="#ffffff" stroke="none" d="M2422 3339 l5 -45 -48 -18 c-53 -18
-63 -33 -26 -38 14 -2 22 -10 22 -23 0 -17 -8 -20 -48 -23 l-47 -3 40 62 c22
34 40 67 40 73 0 21 41 79 49 70 5 -5 11 -30 13 -55z"/>
<path fill="#ffffff" stroke="none" d="M1339 3325 c0 -5 -6 1 -14 15 -8 14
-14 30 -14 35 0 6 6 -1 14 -15 8 -14 14 -29 14 -35z"/>
<path fill="#ffffff" stroke="none" d="M1298 3193 c5 -136 -2 -183 -27 -183
-10 0 -43 -11 -74 -25 l-55 -25 5 -168 c5 -154 4 -169 -14 -188 -18 -21 -58
-29 -122 -25 l-24 1 6 110 c3 61 10 116 15 123 33 40 159 278 193 367 23 58
48 118 56 134 14 28 16 28 26 10 6 -10 13 -69 15 -131z"/>
<path fill="#ffffff" stroke="none" d="M1153 3285 c-13 -40 -33 -61 -33 -35 0
6 5 10 11 10 5 0 8 4 5 9 -8 12 11 61 23 61 5 0 3 -20 -6 -45z"/>
<path fill="#ffffff" stroke="none" d="M2458 3238 c-3 -7 -15 -14 -29 -16 -23
-2 -23 -2 -5 13 24 18 39 20 34 3z"/>
<path fill="#ffffff" stroke="none" d="M1125 3208 c-11 -37 -133 -281 -154
-308 -11 -14 13 43 54 125 40 83 76 162 79 178 4 15 11 27 17 27 6 0 8 -9 4
-22z"/>
<path fill="#ffffff" stroke="none" d="M3890 2884 c0 -324 -1 -345 -17 -340
-10 3 -34 8 -54 11 l-36 7 5 291 4 292 41 43 c23 23 45 42 49 42 4 0 8 -156 8
-346z"/>
<path fill="#ffffff" stroke="none" d="M4210 3210 c0 -11 0 -23 1 -27 0 -5 -7
-9 -15 -11 -11 -2 -16 4 -16 21 0 13 3 27 7 30 12 13 23 7 23 -13z"/>
<path fill="#ffffff" stroke="none" d="M1380 3136 c8 -26 8 -46 0 -75 -17 -65
-30 -48 -30 40 0 83 10 95 30 35z"/>
<path fill="#ffffff" stroke="none" d="M2200 3160 c-6 -11 -13 -20 -16 -20 -2
0 0 9 6 20 6 11 13 20 16 20 2 0 0 -9 -6 -20z"/>
<path fill="#ffffff" stroke="none" d="M2274 3019 c2 -79 8 -152 11 -161 5
-13 2 -18 -9 -18 -9 0 -16 -4 -16 -8 0 -4 -8 -9 -17 -10 -128 -13 -144 -14
-159 -1 -14 12 -14 14 1 25 32 24 85 109 85 138 0 23 89 190 97 182 1 -1 4
-67 7 -147z"/>
<path fill="#ffffff" stroke="none" d="M2460 3045 c0 -114 0 -115 -25 -121
-14 -4 -29 -4 -32 0 -4 3 -9 55 -11 115 l-5 109 29 5 c16 2 32 5 37 6 4 0 7
-51 7 -114z"/>
<path fill="#ffffff" stroke="none" d="M4220 3075 c0 -60 -3 -75 -15 -75 -11
0 -15 12 -15 49 0 47 13 101 25 101 3 0 5 -34 5 -75z"/>
<path fill="#ffffff" stroke="none" d="M2343 3028 c4 -61 3 -106 -3 -112 -16
-16 -18 -5 -20 99 -3 115 -3 115 8 115 5 0 12 -46 15 -102z"/>
<path fill="#ffffff" stroke="none" d="M2845 3099 c13 -12 -31 -219 -51 -239
-31 -31 -184 -3 -184 34 0 7 9 21 20 31 10 9 33 52 51 94 49 118 41 110 101
99 29 -5 57 -14 63 -19z"/>
<path fill="#ffffff" stroke="none" d="M3740 2830 l0 -241 -37 7 c-21 4 -40 9
-43 11 -3 3 -5 90 -5 194 l0 189 40 39 c22 21 41 39 43 40 1 0 2 -107 2 -239z"/>
<path fill="#ffffff" stroke="none" d="M4401 3009 c3 -19 18 -54 32 -79 l27
-45 0 -232 c0 -259 6 -240 -70 -227 l-35 6 3 296 c1 164 5 303 7 310 9 24 30
7 36 -29z"/>
<path fill="#ffffff" stroke="none" d="M1548 2821 c6 -64 8 -119 5 -124 -9
-15 -53 -27 -81 -21 l-28 6 3 126 c2 70 6 147 9 172 l6 45 38 -45 c37 -43 38
-46 48 -159z"/>
<path fill="#ffffff" stroke="none" d="M1360 2899 c0 -67 -1 -69 -25 -69 -24
0 -25 2 -25 69 0 58 3 70 18 74 29 6 32 -1 32 -74z"/>
<path fill="#ffffff" stroke="none" d="M1249 2685 c-7 -18 -8 -18 -8 -2 -1 10
-5 16 -10 13 -12 -8 -21 30 -21 97 0 31 -5 65 -11 75 -9 15 -6 27 17 62 l29
44 6 -135 c3 -74 2 -143 -2 -154z"/>
<path fill="#ffffff" stroke="none" d="M3595 2663 l-6 -33 -64 0 -65 0 0 84 0
85 68 55 67 55 3 -107 c2 -59 0 -122 -3 -139z"/>
<path fill="#ffffff" stroke="none" d="M910 2800 c-6 -11 -13 -20 -16 -20 -2
0 0 9 6 20 6 11 13 20 16 20 2 0 0 -9 -6 -20z"/>
<path fill="#ffffff" stroke="none" d="M4576 2704 c23 -29 24 -38 24 -190 -1
-113 -4 -154 -11 -142 -5 10 -28 21 -49 24 l-40 7 0 166 c0 91 3 184 7 205 l6
39 20 -39 c11 -21 31 -53 43 -70z"/>
<path fill="#ffffff" stroke="none" d="M3365 2689 c8 -34 -1 -51 -15 -29 -12
19 -13 60 -1 60 5 0 12 -14 16 -31z"/>
<path fill="#ffffff" stroke="none" d="M3300 2661 c0 -11 -5 -21 -12 -23 -6
-2 -8 -10 -4 -16 4 -7 16 -10 27 -7 19 6 19 -6 19 -534 l0 -541 -55 0 -55 0 0
509 c0 500 0 509 20 514 16 4 20 14 20 46 0 23 5 41 10 41 6 0 10 7 10 15 0 8
5 15 10 15 6 0 10 -9 10 -19z"/>
<path fill="#ffffff" stroke="none" d="M3220 2660 c0 -5 -5 -10 -11 -10 -5 0
-7 5 -4 10 3 6 8 10 11 10 2 0 4 -4 4 -10z"/>
<path fill="#ffffff" stroke="none" d="M3140 2634 c0 -14 3 -14 15 -4 18 15
20 14 29 -22 6 -25 4 -28 -19 -28 -18 0 -28 7 -35 26 -13 32 -13 44 0 44 6 0
10 -7 10 -16z"/>
<path fill="#ffffff" stroke="none" d="M3072 2605 c-5 -40 -12 -43 -30 -15 -7
11 -19 20 -27 20 -21 0 -19 18 3 22 54 11 58 9 54 -27z"/>
<path fill="#ffffff" stroke="none" d="M3424 2626 c33 13 36 -27 36 -555 l0
-520 -34 -7 c-19 -3 -39 -3 -45 1 -8 4 -11 176 -11 551 0 535 0 545 19 534 11
-5 26 -7 35 -4z"/>
<path fill="#ffffff" stroke="none" d="M2956 2604 c-3 -9 -9 -27 -12 -40 -10
-40 -34 -29 -34 16 0 36 2 40 26 40 20 0 25 -4 20 -16z"/>
<path fill="#ffffff" stroke="none" d="M2802 2585 c-6 -34 -22 -42 -39 -20
-17 25 -17 33 5 38 35 9 39 7 34 -18z"/>
<path fill="#ffffff" stroke="none" d="M2872 2593 c24 -22 23 -35 -4 -31 -15
2 -24 11 -26 26 -4 26 5 28 30 5z"/>
<path fill="#ffffff" stroke="none" d="M3644 2578 c8 -15 25 -25 54 -31 l42
-8 0 -500 0 -499 -57 0 -58 0 3 472 c2 329 0 489 -8 525 -16 72 -2 94 24 41z"/>
<path fill="#ffffff" stroke="none" d="M2720 2561 c0 -56 -35 -79 -82 -55 -44
22 -44 21 -23 44 28 31 46 26 38 -11 -8 -42 16 -36 36 9 16 36 31 42 31 13z"/>
<path fill="#ffffff" stroke="none" d="M3016 2553 c7 -27 -2 -872 -9 -880 -2
-2 -12 -1 -21 3 -14 6 -16 46 -16 433 0 234 3 436 6 449 9 30 32 28 40 -5z"/>
<path fill="#ffffff" stroke="none" d="M3575 2570 c22 0 26 -3 17 -12 -9 -9
-12 -137 -12 -515 l0 -503 -40 0 -40 0 0 521 0 521 23 -6 c12 -3 35 -6 52 -6z"/>
<path fill="#ffffff" stroke="none" d="M3138 2561 c9 -5 26 -12 36 -16 18 -5
19 -14 13 -178 -4 -95 -7 -319 -7 -499 l0 -327 -311 0 c-171 -1 -322 -4 -336
-7 l-24 -6 4 448 c3 381 6 455 19 489 9 22 19 39 22 38 4 -1 22 -8 41 -14 l35
-13 0 -102 c0 -63 -4 -104 -11 -106 -14 -5 -13 -667 2 -685 9 -10 46 -13 142
-13 107 0 134 3 149 17 17 15 19 15 36 0 26 -24 147 -24 156 -1 3 9 6 171 6
361 0 336 0 345 -20 350 -18 5 -20 14 -20 108 0 89 2 104 20 120 11 10 20 24
20 32 0 15 4 16 28 4z"/>
<path fill="#ffffff" stroke="none" d="M2550 2550 c0 -5 -2 -10 -4 -10 -3 0
-8 5 -11 10 -3 6 -1 10 4 10 6 0 11 -4 11 -10z"/>
<path fill="#ffffff" stroke="none" d="M2499 2484 c-26 -32 -100 -6 -85 31 8
23 23 18 30 -10 8 -33 34 -32 42 3 10 42 19 50 22 19 2 -16 -2 -35 -9 -43z"/>
<path fill="#ffffff" stroke="none" d="M2376 2519 c3 -6 1 -16 -5 -22 -9 -9
-14 -8 -21 3 -9 15 -4 30 10 30 5 0 12 -5 16 -11z"/>
<path fill="#ffffff" stroke="none" d="M2930 2380 l0 -119 -37 6 c-61 9 -65
18 -64 138 0 59 3 111 6 115 3 5 26 2 50 -7 l45 -15 0 -118z"/>
<path fill="#ffffff" stroke="none" d="M3821 2520 c5 0 18 -9 29 -20 19 -19
20 -33 20 -490 l0 -470 -45 0 -45 0 0 496 c0 448 2 496 16 490 9 -3 20 -6 25
-6z"/>
<path fill="#ffffff" stroke="none" d="M4701 2445 c-1 -44 -3 -81 -5 -82 -1
-1 -12 0 -24 4 -20 5 -22 11 -22 85 l0 79 27 -3 c26 -3 26 -3 24 -83z"/>
<path fill="#ffffff" stroke="none" d="M2275 2469 c-4 -22 -2 -30 7 -26 7 2
13 16 13 31 -1 30 18 30 23 0 4 -27 -21 -59 -42 -51 -22 9 -22 77 1 77 2 0 1
-14 -2 -31z"/>
<path fill="#ffffff" stroke="none" d="M2164 2451 c-10 -41 -27 -54 -63 -46
-17 3 -33 10 -35 14 -9 14 6 51 21 51 10 0 12 -6 8 -19 -3 -11 -1 -22 5 -26
15 -9 42 15 35 33 -7 19 3 32 20 26 10 -4 13 -14 9 -33z"/>
<path fill="#ffffff" stroke="none" d="M2230 2460 c0 -16 -4 -30 -10 -30 -5 0
-10 14 -10 30 0 17 5 30 10 30 6 0 10 -13 10 -30z"/>
<path fill="#ffffff" stroke="none" d="M2794 2453 c14 -88 4 -117 -49 -138
-53 -20 -64 -14 -71 42 -3 29 -3 64 0 78 7 28 48 54 87 55 23 0 27 -5 33 -37z"/>
<path fill="#ffffff" stroke="none" d="M1970 2420 c-25 -50 -25 -66 1 -73 27
-7 49 1 49 18 0 19 19 29 33 17 7 -5 26 -14 43 -20 26 -8 38 -6 70 11 29 17
52 21 93 19 l53 -3 -5 -45 c-5 -47 -16 -68 -24 -46 -3 6 -14 12 -25 12 -17 0
-19 -5 -13 -32 4 -25 3 -29 -5 -16 -5 9 -33 31 -62 48 -47 29 -58 32 -115 28
-56 -3 -68 -8 -96 -36 -37 -37 -34 10 -22 -445 7 -231 4 -289 -12 -273 -17 16
-21 124 -11 266 14 190 -3 319 -52 407 -17 29 -30 55 -30 58 0 3 10 5 23 5 34
0 72 24 73 45 1 34 27 95 41 95 10 0 8 -10 -7 -40z"/>
<path fill="#ffffff" stroke="none" d="M2060 2452 c0 -5 -9 -17 -20 -27 -19
-17 -19 -17 -7 9 12 25 27 35 27 18z"/>
<path fill="#ffffff" stroke="none" d="M2365 1462 c-3 -3 -7 -3 -10 0 -9 9 -6
968 2 981 4 7 9 -210 11 -482 1 -272 0 -496 -3 -499z"/>
<path fill="#ffffff" stroke="none" d="M1910 2395 c0 -27 -4 -35 -18 -35 -15
0 -17 6 -14 35 3 21 10 35 18 35 9 0 14 -12 14 -35z"/>
<path fill="#ffffff" stroke="none" d="M2475 2368 c-1 -32 -2 -233 -3 -448
l-2 -390 -25 0 -25 0 -1 178 c0 97 -3 300 -5 450 l-4 273 32 -3 33 -3 0 -57z"/>
<path fill="#ffffff" stroke="none" d="M1860 2390 c0 -16 -4 -30 -10 -30 -5 0
-10 14 -10 30 0 17 5 30 10 30 6 0 10 -13 10 -30z"/>
<path fill="#ffffff" stroke="none" d="M4294 2389 c3 -17 6 -98 6 -179 0 -135
-2 -149 -20 -161 -17 -13 -20 -31 -26 -166 -4 -84 -10 -153 -13 -153 -9 0 -14
526 -6 614 7 70 9 76 30 76 17 0 24 -7 29 -31z"/>
<path fill="#ffffff" stroke="none" d="M1818 2388 c-4 -27 -28 -36 -28 -10 0
20 8 32 22 32 5 0 8 -10 6 -22z"/>
<path fill="#ffffff" stroke="none" d="M1733 2365 c-30 -37 -43 -44 -43 -21 0
8 -3 21 -6 29 -6 16 11 24 54 26 23 1 23 1 -5 -34z"/>
<path fill="#ffffff" stroke="none" d="M1605 2315 c-16 -32 -45 -49 -45 -25 0
6 7 10 15 10 8 0 16 9 17 20 0 11 1 26 2 33 1 6 6 15 11 19 17 13 17 -20 0
-57z"/>
<path fill="#ffffff" stroke="none" d="M4533 2356 c16 -5 17 -33 17 -411 l0
-405 -35 0 c-33 0 -35 2 -35 33 0 17 -3 156 -6 307 -3 151 -3 325 1 387 6 100
9 111 23 103 10 -5 25 -11 35 -14z"/>
<path fill="#ffffff" stroke="none" d="M1511 2297 c-8 -8 -11 -2 -11 19 0 40
14 54 18 19 2 -15 -1 -32 -7 -38z"/>
<path fill="#ffffff" stroke="none" d="M1570 2346 c0 -8 -4 -18 -10 -21 -5 -3
-10 3 -10 14 0 12 5 21 10 21 6 0 10 -6 10 -14z"/>
<path fill="#ffffff" stroke="none" d="M1440 2321 c-5 -11 -10 -31 -10 -46 0
-31 -22 -42 -56 -26 -19 8 -25 18 -22 36 2 14 8 24 13 23 6 -2 9 -7 7 -12 -2
-5 0 -16 3 -24 8 -21 35 4 35 33 0 14 7 25 18 28 9 3 18 5 20 6 1 0 -2 -8 -8
-18z"/>
<path fill="#ffffff" stroke="none" d="M1678 2307 c14 -39 0 -102 -29 -130
-18 -17 -19 -36 -19 -330 l0 -312 -25 -1 -24 -2 -3 227 c-2 124 -1 287 2 361
5 130 6 135 27 138 16 2 26 14 34 43 7 21 15 39 19 39 3 0 11 -15 18 -33z"/>
<path fill="#ffffff" stroke="none" d="M4697 2316 c2 -2 5 -688 3 -763 0 -9
-17 -13 -49 -13 -38 0 -50 -4 -53 -16 -2 -9 -3 169 -4 395 l0 411 50 -6 c28
-4 52 -7 53 -8z"/>
<path fill="#ffffff" stroke="none" d="M1320 2285 c0 -14 -4 -25 -10 -25 -11
0 -14 33 -3 43 11 11 13 8 13 -18z"/>
<path fill="#ffffff" stroke="none" d="M1260 2281 c0 -5 -9 -19 -20 -32 l-19
-24 -1 26 c0 14 3 29 7 32 9 10 33 8 33 -2z"/>
<path fill="#ffffff" stroke="none" d="M1198 2236 c-4 -41 -33 -47 -50 -11
-10 23 -10 29 6 40 28 21 48 7 44 -29z"/>
<path fill="#ffffff" stroke="none" d="M2716 2233 c-3 -21 -6 -84 -6 -141 l0
-103 -27 3 c-27 3 -28 6 -31 63 -2 33 -1 92 3 132 7 75 6 73 59 82 5 0 6 -16
2 -36z"/>
<path fill="#ffffff" stroke="none" d="M1076 2223 c-15 -27 -15 -27 -16 -4 0
18 -4 22 -17 16 -12 -4 -14 -3 -8 3 10 10 47 21 53 16 2 -1 -3 -15 -12 -31z"/>
<path fill="#ffffff" stroke="none" d="M1530 1879 l0 -380 -85 3 c-46 1 -87
-1 -91 -5 -4 -4 -15 -7 -24 -7 -13 0 -19 12 -24 46 -9 70 -7 294 3 294 5 0 10
-70 12 -155 3 -106 8 -158 17 -167 9 -9 12 -9 12 0 0 7 9 12 21 12 11 0 42 7
70 16 42 14 49 20 49 43 0 14 1 153 3 309 2 305 3 301 -50 302 -22 0 -22 0 -5
35 15 30 22 35 55 35 l37 0 0 -381z"/>
<path fill="#ffffff" stroke="none" d="M1373 2210 l29 0 -26 -35 c-44 -58 -57
-109 -55 -215 3 -77 0 -95 -11 -95 -12 0 -15 31 -18 171 -4 157 -2 174 14 191
18 19 19 19 28 1 6 -11 20 -18 39 -18z"/>
<path fill="#ffffff" stroke="none" d="M2287 2178 c-2 -13 -4 -3 -4 22 0 25 2
35 4 23 2 -13 2 -33 0 -45z"/>
<path fill="#ffffff" stroke="none" d="M912 2200 c-14 -25 -18 -27 -24 -12
-11 27 -9 30 15 35 12 2 23 5 24 6 1 0 -6 -12 -15 -29z"/>
<path fill="#ffffff" stroke="none" d="M1031 2203 c15 -40 -5 -50 -30 -15 -26
37 -26 42 -1 42 13 0 24 -10 31 -27z"/>
<path fill="#ffffff" stroke="none" d="M2930 2110 c0 -73 -4 -120 -10 -120 -6
0 -10 34 -10 83 0 78 8 157 16 157 2 0 4 -54 4 -120z"/>
<path fill="#ffffff" stroke="none" d="M2814 2181 c26 -38 27 -43 20 -120 -7
-81 -7 -81 -35 -81 l-29 0 0 69 c0 39 5 73 10 76 17 11 11 43 -9 47 -15 2 -17
8 -10 26 12 31 22 28 53 -17z"/>
<path fill="#ffffff" stroke="none" d="M847 2180 c-4 -15 0 -20 14 -20 24 0
25 -16 2 -24 -11 -4 -26 2 -41 18 -27 26 -23 46 10 46 15 0 19 -5 15 -20z"/>
<path fill="#ffffff" stroke="none" d="M986 2175 c21 -23 22 -28 12 -97 -5
-40 -8 -92 -5 -115 2 -24 2 -43 -2 -43 -3 0 -23 30 -43 66 -27 47 -35 71 -29
82 5 10 11 35 15 57 9 52 16 75 23 75 3 0 16 -11 29 -25z"/>
<path fill="#ffffff" stroke="none" d="M1214 2184 c14 9 27 16 28 16 2 0 4
-144 5 -320 l2 -320 -24 0 -25 0 0 300 c0 293 0 300 -20 300 -20 0 -20 -7 -20
-325 l0 -325 -40 0 -40 0 0 169 c0 103 4 172 10 176 6 4 10 71 10 169 0 89 3
165 6 168 3 3 23 -1 44 -9 36 -14 42 -14 64 1z"/>
<path fill="#ffffff" stroke="none" d="M760 2186 c0 -2 -7 -6 -15 -10 -8 -3
-15 -1 -15 4 0 6 7 10 15 10 8 0 15 -2 15 -4z"/>
<path fill="#ffffff" stroke="none" d="M720 2150 c0 -18 -6 -33 -15 -37 -22
-8 -30 4 -15 22 7 8 10 22 6 30 -3 9 0 15 9 15 10 0 15 -10 15 -30z"/>
<path fill="#ffffff" stroke="none" d="M620 2143 c0 -10 -4 -24 -9 -32 -7 -10
-12 -8 -25 10 -15 22 -15 24 1 31 28 11 33 9 33 -9z"/>
<path fill="#ffffff" stroke="none" d="M1427 2108 c-12 -39 -39 -69 -52 -56
-11 11 33 98 49 98 13 0 13 -6 3 -42z"/>
<path fill="#ffffff" stroke="none" d="M514 2125 c-5 -11 -10 -13 -19 -5 -9 8
-15 8 -20 0 -3 -5 -1 -10 5 -10 11 0 3 -48 -11 -64 -6 -7 -6 74 0 92 1 1 12 2
26 2 18 0 23 -4 19 -15z"/>
<path fill="#ffffff" stroke="none" d="M800 2125 c7 -8 30 -20 51 -25 22 -6
39 -14 39 -18 0 -4 -17 -16 -38 -27 -56 -30 -61 -56 -61 -322 -1 -205 -3 -233
-17 -233 -13 0 -15 26 -13 223 1 156 -2 231 -11 252 -11 28 -13 28 -20 10 -5
-11 -11 -32 -14 -47 -7 -33 -32 -37 -41 -8 -8 27 -25 25 -54 -6 -20 -21 -22
-27 -10 -35 8 -5 17 -9 22 -9 4 0 7 -16 7 -35 0 -31 -19 -55 -44 -55 -3 0 -6
52 -6 115 0 114 0 115 -23 115 l-23 0 1 -267 c1 -148 4 -275 6 -283 2 -9 -3
-14 -16 -15 -20 0 -20 7 -23 309 -1 211 1 313 8 320 8 8 9 6 5 -6 -5 -12 -2
-18 8 -18 21 0 32 19 18 33 -6 6 -11 18 -11 26 0 8 12 -4 27 -27 15 -23 33
-42 41 -42 7 0 20 17 29 37 l15 37 20 -27 c26 -35 40 -34 75 7 32 40 36 41 53
21z"/>
<path fill="#ffffff" stroke="none" d="M1394 2014 c3 -9 6 -45 6 -80 0 -50 -3
-64 -15 -64 -12 0 -15 16 -15 80 0 75 10 101 24 64z"/>
<path fill="#ffffff" stroke="none" d="M2930 1851 c0 -59 -3 -136 -6 -170 -12
-115 -24 -61 -24 109 0 144 2 170 15 170 12 0 15 -19 15 -109z"/>
<path fill="#ffffff" stroke="none" d="M2700 1780 c0 -153 -1 -160 -20 -160
-19 0 -20 7 -20 160 0 153 1 160 20 160 19 0 20 -7 20 -160z"/>
<path fill="#ffffff" stroke="none" d="M2830 1786 l0 -154 -30 -4 -31 -5 2
151 c0 83 3 154 6 159 2 4 15 7 29 7 l24 0 0 -154z"/>
<path fill="#ffffff" stroke="none" d="M1018 1665 c3 -195 1 -225 -12 -225
-13 0 -15 33 -18 228 -2 125 -1 231 1 235 2 5 8 4 15 -3 7 -7 12 -85 14 -235z"/>
<path fill="#ffffff" stroke="none" d="M710 1850 c0 -44 -2 -50 -21 -50 -17 0
-20 4 -15 23 3 12 6 34 6 50 0 17 5 27 15 27 11 0 15 -12 15 -50z"/>
<path fill="#ffffff" stroke="none" d="M1393 1763 c12 -120 9 -183 -8 -183
-13 0 -15 21 -15 125 0 135 13 167 23 58z"/>
<path fill="#ffffff" stroke="none" d="M630 1709 c0 -22 -5 -29 -20 -29 -16 0
-20 7 -20 34 0 29 3 33 20 29 14 -4 20 -14 20 -34z"/>
<path fill="#ffffff" stroke="none" d="M708 1712 c3 -27 0 -32 -17 -32 -17 0
-21 6 -21 36 0 28 3 35 18 32 11 -2 18 -14 20 -36z"/>
<path fill="#ffffff" stroke="none" d="M630 1587 c0 -56 -2 -63 -20 -63 -18 0
-20 7 -20 63 0 56 2 63 20 63 18 0 20 -7 20 -63z"/>
<path fill="#ffffff" stroke="none" d="M3009 1636 c7 -8 8 -16 4 -19 -13 -8
-55 12 -48 23 9 14 31 12 44 -4z"/>
<path fill="#ffffff" stroke="none" d="M694 1634 c20 -8 23 -123 4 -157 -12
-22 -12 -21 -19 8 -7 34 -11 155 -5 155 2 0 11 -3 20 -6z"/>
<path fill="#ffffff" stroke="none" d="M2095 1470 c-7 -11 -187 -12 -315 -1
-70 7 -48 8 118 9 133 1 201 -1 197 -8z"/>
<path fill="#ffffff" stroke="none" d="M1370 1410 c0 -6 -49 -10 -128 -10 -71
0 -165 -3 -208 -6 -73 -6 -78 -5 -59 9 17 14 52 16 208 17 118 0 187 -4 187
-10z"/>
<path fill="#ffffff" stroke="none" d="M2036 1405 c-16 -12 -62 -15 -240 -15
-120 0 -216 3 -213 6 10 11 162 21 322 22 134 1 148 0 131 -13z"/>
<path fill="#ffffff" stroke="none" d="M1117 1337 c128 4 183 3 183 -5 0 -15
-105 -24 -255 -20 -121 3 -130 4 -133 23 -3 16 -1 18 9 8 9 -10 57 -11 196 -6z"/>
<path fill="#ffffff" stroke="none" d="M1970 1335 c-7 -8 -16 -15 -21 -15 -5
0 -9 7 -9 15 0 9 9 15 21 15 18 0 19 -2 9 -15z"/>
<path fill="#ffffff" stroke="none" d="M1928 1323 c3 -10 -40 -13 -192 -13
-169 0 -196 2 -196 15 0 13 26 15 192 13 142 -2 192 -6 196 -15z"/>
<path fill="#ffffff" stroke="none" d="M1503 1279 c6 -22 8 -22 186 -17 172 5
181 5 181 -13 0 -18 -11 -19 -205 -19 l-205 0 0 28 c0 46 33 61 43 21z"/>
<path fill="#ffffff" stroke="none" d="M1228 1250 c-3 -13 -33 -16 -186 -20
-100 -3 -182 -4 -182 -2 0 2 5 12 10 22 10 18 22 19 185 17 151 -1 175 -4 173
-17z"/>
<path fill="#ffffff" stroke="none" d="M1270 1240 c0 -5 -4 -10 -10 -10 -5 0
-10 5 -10 10 0 6 5 10 10 10 6 0 10 -4 10 -10z"/>
<path fill="#000000" stroke="none" d="M1167 2246 c-4 -10 -5 -21 -2 -24 9 -9
17 6 13 25 -3 17 -4 17 -11 -1z"/>
</g>
</svg>
